<svg width="24" height="24" viewBox="0 0 24 24" fill="none" xmlns="http://www.w3.org/2000/svg">
<g clip-path="url(#clip0_4_142)">
<path d="M12.0001 3.05978C11.7649 3.23857 8.53976 5.63806 4.40355 6.46627C3.85828 16.011 11.995 20.9526 12.0001 20.9497C12.0053 20.9526 20.142 16.0111 19.5967 6.46601C15.4603 5.63806 12.0001 3.05978 12.0001 3.05978Z" fill="#01A4FF"/>
<path d="M22.286 4.92841C22.2695 4.63855 22.0591 4.39649 21.7743 4.33924C16.7303 3.32961 12.4238 0.158206 12.3813 0.126545C12.1535 -0.0432433 11.8407 -0.0418777 11.6142 0.130591C11.4444 0.259766 7.39685 3.30457 2.22603 4.33954C1.94113 4.39654 1.73083 4.63886 1.71414 4.92877C1.29981 12.1817 4.7028 17.3993 7.63067 20.4988C8.72941 21.6623 9.76043 22.5224 10.4319 23.0388C10.8172 23.3349 11.1283 23.5525 11.3213 23.6828C11.6818 23.9266 11.7855 23.9964 11.9844 24C11.9927 24.0003 12.0009 24.0003 12.0087 24.0003C12.205 24.0003 12.3234 23.9211 12.6356 23.7119C12.8047 23.5984 13.0786 23.4094 13.4197 23.1513C14.0142 22.7026 14.9333 21.9556 15.9374 20.9446C17.824 19.0455 19.326 16.9308 20.4009 14.6596C21.8463 11.6067 22.4806 8.33272 22.286 4.92841ZM16.6986 18.1766C14.7618 20.6054 12.7601 22.085 12.0001 22.6017C11.2404 22.085 9.23867 20.6057 7.30106 18.1755C4.27016 14.3739 2.81288 10.107 2.96592 5.48598C7.33166 4.50002 10.8631 2.21939 12.0035 1.42213C13.1592 2.21822 16.7515 4.51383 21.0343 5.48562C21.1874 10.1073 19.7302 14.3748 16.6986 18.1766Z" fill="#01A4FF"/>
</g>
<defs>
<clipPath id="clip0_4_142">
<rect width="24" height="24" fill="white"/>
</clipPath>
</defs>
</svg>
